<mxfile host="app.diagrams.net" modified="2022-03-28T04:51:18.626Z" agent="5.0 (Macintosh; Intel Mac OS X 10_15_7) AppleWebKit/537.36 (KHTML, like Gecko) Chrome/99.0.4844.83 Safari/537.36" etag="d8QTeep3qPd9gheJG4XC" version="17.2.4" type="github">
  <diagram id="k0EjBcfCGAlE6wbjTeY9" name="Page-1">
    <mxGraphModel dx="1426" dy="711" grid="1" gridSize="10" guides="1" tooltips="1" connect="1" arrows="1" fold="1" page="1" pageScale="1" pageWidth="827" pageHeight="1169" math="0" shadow="0">
      <root>
        <mxCell id="0" />
        <mxCell id="1" parent="0" />
        <mxCell id="JonYaJ7r1galOTW0Igp0-1" value="" style="shape=image;verticalLabelPosition=bottom;labelBackgroundColor=default;verticalAlign=top;aspect=fixed;imageAspect=0;image=https://cdn.jsdelivr.net/gh/xiaolincoder/ImageHost/%E8%AE%A1%E7%AE%97%E6%9C%BA%E7%BD%91%E7%BB%9C/%E9%94%AE%E5%85%A5%E7%BD%91%E5%9D%80%E8%BF%87%E7%A8%8B/22.jpg;" vertex="1" parent="1">
          <mxGeometry x="160" y="310" width="643.81" height="260" as="geometry" />
        </mxCell>
        <mxCell id="JonYaJ7r1galOTW0Igp0-2" value="" style="rounded=0;whiteSpace=wrap;html=1;strokeColor=none;" vertex="1" parent="1">
          <mxGeometry x="330" y="447" width="120" height="60" as="geometry" />
        </mxCell>
        <mxCell id="JonYaJ7r1galOTW0Igp0-3" value="" style="endArrow=none;dashed=1;html=1;dashPattern=1 3;strokeWidth=2;rounded=0;" edge="1" parent="1">
          <mxGeometry width="50" height="50" relative="1" as="geometry">
            <mxPoint x="423" y="450" as="sourcePoint" />
            <mxPoint x="423" y="490" as="targetPoint" />
          </mxGeometry>
        </mxCell>
        <mxCell id="JonYaJ7r1galOTW0Igp0-4" value="IP 负责部分" style="text;html=1;align=center;verticalAlign=middle;resizable=0;points=[];autosize=1;strokeColor=none;fillColor=none;fontSize=13;" vertex="1" parent="1">
          <mxGeometry x="380" y="487" width="80" height="20" as="geometry" />
        </mxCell>
        <mxCell id="JonYaJ7r1galOTW0Igp0-5" value="" style="endArrow=none;dashed=1;html=1;dashPattern=1 3;strokeWidth=2;rounded=0;" edge="1" parent="1">
          <mxGeometry width="50" height="50" relative="1" as="geometry">
            <mxPoint x="352" y="450" as="sourcePoint" />
            <mxPoint x="352" y="490" as="targetPoint" />
          </mxGeometry>
        </mxCell>
        <mxCell id="JonYaJ7r1galOTW0Igp0-6" value="MAC 负责部分" style="text;html=1;align=center;verticalAlign=middle;resizable=0;points=[];autosize=1;strokeColor=none;fillColor=none;fontSize=13;" vertex="1" parent="1">
          <mxGeometry x="280" y="487" width="100" height="20" as="geometry" />
        </mxCell>
      </root>
    </mxGraphModel>
  </diagram>
</mxfile>
